<svg xmlns="http://www.w3.org/2000/svg" width="39.524" height="30.592" viewBox="0 0 39.524 30.592">
  <path id="Icon_material-supervisor-account" data-name="Icon material-supervisor-account" d="M31.655,22.8a5.208,5.208,0,0,0,4.921-5.463,5.208,5.208,0,0,0-4.921-5.463,5.223,5.223,0,0,0-4.941,5.463A5.223,5.223,0,0,0,31.655,22.8ZM16.833,20.611c3.281,0,5.909-2.928,5.909-6.555S20.114,7.5,16.833,7.5,10.9,10.428,10.9,14.055,13.553,20.611,16.833,20.611Zm14.822,6.555c-3.616,0-10.869,2.01-10.869,6.009v4.917H42.524V33.176C42.524,29.177,35.271,27.166,31.655,27.166ZM16.833,24.981C12.229,24.981,3,27.538,3,32.629v5.463H16.833V33.176c0-1.857.652-5.113,4.684-7.583A22.061,22.061,0,0,0,16.833,24.981Z" transform="translate(-3 -7.5)"/>
</svg>
