<svg xmlns="http://www.w3.org/2000/svg" width="33.495" height="33.503" viewBox="0 0 33.495 33.503">
  <path id="Icon_ionic-ios-settings" data-name="Icon ionic-ios-settings" d="M35.23,21.247a4.31,4.31,0,0,1,2.765-4.021,17.084,17.084,0,0,0-2.067-4.981,4.368,4.368,0,0,1-1.753.375A4.3,4.3,0,0,1,30.24,6.567,17.033,17.033,0,0,0,25.268,4.5a4.306,4.306,0,0,1-8.042,0,17.084,17.084,0,0,0-4.981,2.067,4.3,4.3,0,0,1-3.934,6.053,4.226,4.226,0,0,1-1.753-.375A17.462,17.462,0,0,0,4.5,17.235a4.309,4.309,0,0,1,.009,8.042,17.084,17.084,0,0,0,2.067,4.981,4.3,4.3,0,0,1,5.678,5.678A17.184,17.184,0,0,0,17.235,38a4.3,4.3,0,0,1,8.025,0,17.085,17.085,0,0,0,4.981-2.067,4.307,4.307,0,0,1,5.678-5.678,17.184,17.184,0,0,0,2.067-4.981A4.331,4.331,0,0,1,35.23,21.247Zm-13.9,6.969A6.978,6.978,0,1,1,28.3,21.239,6.976,6.976,0,0,1,21.326,28.217Z" transform="translate(-4.5 -4.5)"/>
</svg>
